<?xml version="1.0" encoding="UTF-8"?>
<svg version="1.1" xmlns="http://www.w3.org/2000/svg" width="494" height="505">
<path d="M0 0 C1.66111994 1.49551749 3.31392141 3.00034218 4.95703125 4.515625 C6.92358878 6.31570147 8.93728302 8.02384945 10.984375 9.73046875 C44.44703775 39.09429128 66.53225988 81.42779076 78.859375 123.60546875 C79.13265625 124.50571777 79.4059375 125.4059668 79.6875 126.33349609 C85.18240093 145.83442167 86.82765596 165.87132821 86.63842773 186.04980469 C86.60919667 189.43864304 86.61794876 192.82592978 86.63085938 196.21484375 C86.61469365 214.41481244 84.54818004 231.64642359 80.046875 249.29296875 C79.749021 250.46835205 79.45116699 251.64373535 79.14428711 252.85473633 C62.84313779 314.94778962 21.43669896 368.94801689 -33.59765625 401.8203125 C-50.49956988 411.68174059 -68.15464535 419.69769081 -86.828125 425.54296875 C-87.57626465 425.77854492 -88.3244043 426.01412109 -89.09521484 426.25683594 C-151.84606785 445.6648871 -219.97264295 437.59689807 -277.890625 407.48046875 C-285.18266322 403.59603609 -292.09182114 399.33505483 -298.828125 394.54296875 C-299.95506052 393.76465597 -301.08269713 392.98735757 -302.2109375 392.2109375 C-314.92029515 383.3968652 -326.11998706 373.43060397 -337.078125 362.54296875 C-338.46257812 361.17253418 -338.46257812 361.17253418 -339.875 359.77441406 C-377.65348597 321.81951993 -400.36229281 270.34461069 -406.828125 217.54296875 C-406.91545395 216.85348648 -407.0027829 216.16400421 -407.09275818 215.45362854 C-407.72479759 210.19492687 -408.00040973 205.01691426 -408.03125 199.72265625 C-408.03830963 198.90975632 -408.04536926 198.09685638 -408.05264282 197.25932312 C-408.48822603 132.31216435 -388.64777493 70.66969964 -343.828125 22.54296875 C-342.65671046 21.19290711 -341.4898308 19.83889361 -340.328125 18.48046875 C-333.16856531 10.30280654 -325.31919965 3.30663279 -316.828125 -3.45703125 C-316.07273437 -4.09125 -315.31734375 -4.72546875 -314.5390625 -5.37890625 C-279.71160112 -34.34194974 -235.51697684 -51.7487094 -190.828125 -57.45703125 C-190.13380371 -57.55274414 -189.43948242 -57.64845703 -188.72412109 -57.74707031 C-121.31460999 -65.89050118 -51.16653354 -44.45269281 0 0 Z " fill="#E24D3C" transform="translate(407.828125,58.45703125)"/>
<path d="M0 0 C0.99 0.66 1.98 1.32 3 2 C3 2.66 3 3.32 3 4 C3.58815491 4.26349243 4.17630981 4.52698486 4.7822876 4.79846191 C7.09667131 6.05237571 8.62428115 7.37061576 10.48339844 9.22460938 C11.14378113 9.87868774 11.80416382 10.53276611 12.48455811 11.20666504 C13.18574768 11.91190308 13.88693726 12.61714111 14.609375 13.34375 C15.33618469 14.06864624 16.06299438 14.79354248 16.81182861 15.54040527 C18.34397279 17.07119011 19.87360075 18.60449697 21.40087891 20.14013672 C23.74811631 22.4981077 26.10585778 24.84519546 28.46484375 27.19140625 C29.95116282 28.67904636 31.43686169 30.16730644 32.921875 31.65625 C33.98580475 32.71410706 33.98580475 32.71410706 35.07122803 33.79333496 C35.71900208 34.44741333 36.36677612 35.1014917 37.03417969 35.77539062 C37.60835632 36.35115845 38.18253296 36.92692627 38.77410889 37.5201416 C40 39 40 39 40 41 C40.61875 41.28875 41.2375 41.5775 41.875 41.875 C44 43 44 43 46 45 C45.9765625 47.265625 45.9765625 47.265625 45.625 50.25 C43.76932591 70.93732963 43.17539995 93.58607147 57.140625 110.609375 C58.65689277 112.27004922 60.19188131 113.91384543 61.74609375 115.5390625 C67.57142712 121.89947848 72.12453801 127.64821252 72.1328125 136.34765625 C72.13479141 137.33831337 72.13479141 137.33831337 72.1368103 138.34898376 C72.13877019 140.58686608 72.13223475 142.82462951 72.125 145.0625 C72.12367065 146.2529895 72.12367065 146.2529895 72.12231445 147.4675293 C72.10623587 160.01005715 71.8732771 172.54142022 71.57046509 185.07983398 C71.54721161 186.04348877 71.52395813 187.00714355 71.5 188 C71.47650482 188.9696167 71.45300964 189.9392334 71.42880249 190.93823242 C70.91913656 212.6458179 70.91603868 234.35021346 70.9375 256.0625 C70.93835602 256.9317511 70.93921204 257.8010022 70.94009399 258.69659424 C70.95150298 269.4644196 70.97243485 280.23220459 71 291 C77.27 291 83.54 291 90 291 C89.75681821 279.87770755 89.51337027 268.755421 89.26950932 257.63314342 C89.15616536 252.46319592 89.04291839 247.29324634 88.92993164 242.12329102 C88.35821139 215.96695878 87.7702391 189.81107815 87.15600014 163.65570831 C86.99776875 156.91635262 86.84199993 150.17694236 86.6875 143.4375 C86.66399475 142.54682831 86.6404895 141.65615662 86.61627197 140.73849487 C86.47657122 133.28924126 88.75969529 126.87824742 93.33203125 121.00390625 C94.15058594 120.19824219 94.96914063 119.39257812 95.8125 118.5625 C100.73117572 113.4337483 104.4517311 108.13831544 108 102 C108.39960938 101.38253906 108.79921875 100.76507813 109.2109375 100.12890625 C120.25287076 81.49045499 115.01798961 54.81031005 110.15625 35.140625 C108.82913726 30.1172229 106.93453849 25.39845913 104.85546875 20.63671875 C103.9556937 17.8634395 103.96360613 16.67682099 105 14 C111.52435902 19.44975871 117.49784931 25.39285785 123.45776367 31.44189453 C125.62997493 33.63645718 127.81619206 35.8169889 130 38 C131.17629114 39.17624792 132.35255886 40.35251927 133.52880859 41.52880859 C134.18476013 42.18476013 134.84071167 42.84071167 135.51654053 43.51654053 C169.99386597 77.99386597 169.99386597 77.99386597 204.47119141 112.47119141 C205.08015762 113.08006699 205.68912384 113.68894257 206.31654358 114.31626892 C207.81983911 115.81980972 209.32221384 117.32427104 210.82446289 118.82885742 C212.35779965 120.35909687 213.90317042 121.87732453 215.45703125 123.38671875 C216.23433594 124.14597656 217.01164063 124.90523438 217.8125 125.6875 C218.60269531 126.45449219 219.39289063 127.22148437 220.20703125 128.01171875 C222 130 222 130 222 132 C222.99 132 223.98 132 225 132 C225.2475 132.78375 225.495 133.5675 225.75 134.375 C227.20677422 137.43422586 227.96273506 137.74936149 231 139 C233.25 140.5 233.25 140.5 235 142 C235 142.66 235 143.32 235 144 C235.66 144 236.32 144 237 144 C238.55078125 145.5390625 238.55078125 145.5390625 240.3125 147.625 C240.93125 148.34945312 241.55 149.07390625 242.1875 149.8203125 C243.30207439 151.16068429 244.40823742 152.50817054 245.5 153.8671875 C246.63100765 155.27421488 247.81123879 156.64141576 249 158 C249.66 158 250.32 158 251 158 C251 158.66 251 159.32 251 160 C251.66 160 252.32 160 253 160 C253.2475 160.61875 253.495 161.2375 253.75 161.875 C255.20628639 164.35068687 256.37812506 164.95125002 259 166 C259 166.66 259 167.32 259 168 C259.66 168 260.32 168 261 168 C262.35278115 169.98689731 263.68568305 171.98745218 265 174 C265.66 174.33 266.32 174.66 267 175 C267 175.66 267 176.32 267 177 C267.99 177.33 268.98 177.66 270 178 C273.45610219 183.18415329 272.47172685 189.15144433 271.48095703 195.13427734 C270.75190023 198.50942663 269.93205924 201.84579764 269.0625 205.1875 C268.59541626 207.01148315 268.59541626 207.01148315 268.11889648 208.87231445 C251.44199754 271.8397951 209.58742704 326.56275526 153.31860352 359.39282227 C131.39155609 371.88360987 108.45862174 380.8795896 84 387 C83.26620117 387.18618896 82.53240234 387.37237793 81.77636719 387.56420898 C76.69138481 388.78410216 71.85130847 389.39253176 66.625 389.4375 C65.92761719 389.47037109 65.23023438 389.50324219 64.51171875 389.53710938 C62.4765625 389.55859375 62.4765625 389.55859375 59 389 C57.01431968 386.58657431 56 385.14847766 56 382 C55.1028125 381.566875 55.1028125 381.566875 54.1875 381.125 C52 380 52 380 49 378 C49 377.34 49 376.68 49 376 C47.68 375.34 46.36 374.68 45 374 C45 373.34 45 372.68 45 372 C43.68 371.34 42.36 370.68 41 370 C41 369.34 41 368.68 41 368 C40.34 368 39.68 368 39 368 C39 367.34 39 366.68 39 366 C38.34 366 37.68 366 37 366 C37 365.34 37 364.68 37 364 C36.01 364 35.02 364 34 364 C31 360.66666667 31 360.66666667 31 358 C30.34 358 29.68 358 29 358 C26.875 356.125 26.875 356.125 25 354 C25 353.34 25 352.68 25 352 C24.34 352 23.68 352 23 352 C23 351.34 23 350.68 23 350 C21.68 349.67 20.36 349.34 19 349 C19 348.01 19 347.02 19 346 C18.47019531 345.79890625 17.94039062 345.5978125 17.39453125 345.390625 C13.93822623 343.38337445 11.44790476 340.61352676 8.6875 337.75 C5.18227066 334.16092757 1.73303393 330.64304408 -2.1875 327.5 C-4.95372606 325.04113239 -6.06332591 323.53854658 -7 320 C-7.66 320 -8.32 320 -9 320 C-9 319.34 -9 318.68 -9 318 C-9.804375 317.731875 -10.60875 317.46375 -11.4375 317.1875 C-12.283125 316.795625 -13.12875 316.40375 -14 316 C-14.33 315.01 -14.66 314.02 -15 313 C-17.00016466 311.79117904 -17.00016466 311.79117904 -19 311 C-19 310.34 -19 309.68 -19 309 C-19.66 309 -20.32 309 -21 309 C-22.35386936 307.34997172 -23.68678142 305.6825613 -25 304 C-25.66 303.67 -26.32 303.34 -27 303 C-27 302.34 -27 301.68 -27 301 C-27.66 301 -28.32 301 -29 301 C-30.5078125 299.50390625 -30.5078125 299.50390625 -32.125 297.5625 C-32.66382813 296.92441406 -33.20265625 296.28632813 -33.7578125 295.62890625 C-35 294 -35 294 -35 293 C-34.26394531 292.93941406 -33.52789062 292.87882812 -32.76953125 292.81640625 C-31.30580078 292.69072266 -31.30580078 292.69072266 -29.8125 292.5625 C-28.84957031 292.48128906 -27.88664063 292.40007812 -26.89453125 292.31640625 C-24.21185988 292.02315877 -21.64019215 291.54671628 -19 291 C-19.03758423 289.25308113 -19.03758423 289.25308113 -19.07592773 287.47087097 C-19.31706418 276.22902067 -19.55225053 264.98705779 -19.78230286 253.74497509 C-19.90060892 247.97209208 -20.02067241 242.19925947 -20.14550781 236.42651367 C-20.48621892 220.61840331 -20.77371812 204.81017031 -21 189 C-21.01780518 187.80856636 -21.03561035 186.61713272 -21.05395508 185.38959503 C-21.1588202 178.22164222 -21.23914424 171.05409597 -21.28610229 163.88552284 C-21.30355531 161.63941447 -21.32779266 159.3933475 -21.35916138 157.14739037 C-21.40073349 154.0437621 -21.41661673 150.9410284 -21.42578125 147.8371582 C-21.44324402 146.9247191 -21.46070679 146.01228001 -21.47869873 145.07219124 C-21.4594114 139.39449485 -20.67538235 136.37888937 -17 132 C-15.21655273 130.42016602 -15.21655273 130.42016602 -13.43359375 129.25390625 C-12.4580957 128.58584961 -12.4580957 128.58584961 -11.46289062 127.90429688 C-10.1117064 127.00915362 -8.75752055 126.11852492 -7.40039062 125.23242188 C-6.75134766 124.78576172 -6.10230469 124.33910156 -5.43359375 123.87890625 C-4.84634521 123.4929126 -4.25909668 123.10691895 -3.65405273 122.70922852 C0.27098637 118.65325822 1.34016138 113.83046127 1.36541748 108.33137512 C1.35311096 107.65354477 1.34080444 106.97571442 1.328125 106.27734375 C1.32661438 105.54847458 1.32510376 104.81960541 1.32354736 104.06864929 C1.31418911 101.69122896 1.28254739 99.31470675 1.25 96.9375 C1.23803652 95.25765588 1.226981 93.57780507 1.21679688 91.89794922 C1.13200175 80.97743596 0.80396966 70.07304418 0.35864258 59.16137695 C-0.37323234 39.4559403 -0.08151014 19.71542086 0 0 Z " fill="#BF4132" transform="translate(219,102)"/>
<path d="M0 0 C14.46256535 8.4882541 19.04903326 25.97304229 23.18408203 41.07397461 C28.60062748 62.52341043 30.02103513 87.23931366 18.3359375 106.86328125 C15.20591183 111.69463148 11.37650171 115.98169181 7.38134766 120.11376953 C1.33491084 126.54393307 -1.67369229 133.85378842 -1.59008789 142.70837402 C-1.56035889 143.5780481 -1.53062988 144.44772217 -1.5 145.34375 C-1.48380615 146.31235962 -1.4676123 147.28096924 -1.45092773 148.27893066 C-1.38602865 151.70767819 -1.28729342 155.13459586 -1.1875 158.5625 C-1.13559268 160.62543635 -1.08624685 162.68842537 -1.03695488 164.75142574 C-0.86774979 171.79890954 -0.67739908 178.84570071 -0.47607422 185.89233398 C0.53912991 221.46207103 1.11010153 256.97622425 0.8125 292.5625 C-2.92773002 293.80924334 -6.4191086 293.70802755 -10.3125 293.6875 C-11.05371094 293.69136719 -11.79492188 293.69523437 -12.55859375 293.69921875 C-18.0608402 293.6891598 -18.0608402 293.6891598 -19.1875 292.5625 C-19.28726542 290.46025726 -19.31549932 288.35460822 -19.31689453 286.25 C-19.31948902 285.25444092 -19.31948902 285.25444092 -19.32213593 284.23876953 C-19.32652145 282.01332171 -19.32353409 279.78794892 -19.3203125 277.5625 C-19.32132693 275.99348935 -19.32266567 274.42447887 -19.3243103 272.85546875 C-19.32702156 268.63377521 -19.32252649 264.41211812 -19.31607056 260.19042969 C-19.31250619 257.56705618 -19.3108831 254.94368813 -19.30981445 252.3203125 C-19.29921413 231.39557558 -19.17697994 210.48228666 -18.6875 189.5625 C-18.64439306 187.62565592 -18.60150231 185.68880701 -18.55883789 183.75195312 C-18.3984793 176.56348078 -18.23740497 169.37515529 -18.04345703 162.1875 C-17.93098485 157.93006398 -17.84949514 153.67305124 -17.79052734 149.41455078 C-17.76408843 147.88013823 -17.72698796 146.34586144 -17.67773438 144.81201172 C-17.39195009 135.78326978 -17.95552727 129.49747801 -24.1875 122.5625 C-24.65873291 121.99901855 -25.12996582 121.43553711 -25.61547852 120.85498047 C-26.94362133 119.29130376 -28.31178821 117.77181813 -29.6875 116.25 C-43.91262026 99.82900743 -46.66468183 80.60733701 -45.1875 59.5625 C-44.6560673 54.12405152 -43.53323232 48.8518757 -42.1875 43.5625 C-41.98350586 42.73331055 -41.77951172 41.90412109 -41.56933594 41.04980469 C-37.47457463 24.67671981 -32.72645305 9.76797773 -18.375 -0.4375 C-12.32815913 -2.33454812 -5.89991582 -2.53684743 0 0 Z " fill="#FEFBFA" transform="translate(308.1875,100.4375)"/>
<path d="M0 0 C2.375 -0.125 2.375 -0.125 5 0 C8.06554877 3.06554877 7.30017261 6.66200888 7.30297852 10.77661133 C7.31141785 11.68570755 7.31985718 12.59480377 7.32855225 13.53144836 C7.35442226 16.54831441 7.36649409 19.56508239 7.37890625 22.58203125 C7.39507491 24.67470582 7.41225423 26.76737281 7.43040466 28.86003113 C7.47618465 34.38022349 7.51093454 39.90042594 7.54260254 45.42071533 C7.59437895 54.24668739 7.65969141 63.07254718 7.73081779 71.89838219 C7.7536379 74.98325501 7.76992132 78.06811376 7.78553772 81.1530304 C7.79894887 83.04709016 7.81256406 84.94114849 7.82641602 86.83520508 C7.82902939 87.69305603 7.83164276 88.55090698 7.83433533 89.43475342 C7.86891312 93.41914958 8.01291421 97.11099223 9 101 C10.98491642 100.73323796 10.98491642 100.73323796 13 100 C14.32338398 96.02984806 14.16105359 92.21822644 14.17358398 88.078125 C14.180271 87.16567017 14.18695801 86.25321533 14.19384766 85.31311035 C14.20790103 83.33078346 14.21979417 81.34844035 14.22979546 79.36608887 C14.24619154 76.23130383 14.26942751 73.09663939 14.29469299 69.96191406 C14.36551736 61.04888907 14.425674 52.13581559 14.47680664 43.22265625 C14.50855149 37.77266154 14.54981226 32.3228066 14.59700203 26.8729248 C14.6130454 24.79327908 14.62535613 22.71360116 14.63390923 20.63391113 C14.64602774 17.72975417 14.67016179 14.82592759 14.69702148 11.921875 C14.69761063 11.05840454 14.69819977 10.19493408 14.69880676 9.30529785 C14.77210046 3.34184931 14.77210046 3.34184931 17 0 C19.5625 -0.25 19.5625 -0.25 22 0 C23.52347276 1.52347276 23.13694657 2.87757548 23.15148926 5.00361633 C23.15983292 5.86586823 23.16817657 6.72812012 23.17677307 7.61650085 C23.1830497 9.04637077 23.1830497 9.04637077 23.18945312 10.50512695 C23.19774643 11.50346558 23.20603973 12.5018042 23.21458435 13.53039551 C23.2320296 15.7064636 23.24718402 17.88255094 23.26036072 20.05864906 C23.2813225 23.50018437 23.30835205 26.9416234 23.33703613 30.38310242 C23.39685395 37.69286486 23.44892665 45.00267193 23.5 52.3125 C23.5591846 60.76993831 23.62150419 69.22732963 23.69187927 77.68468285 C23.71848343 81.07926821 23.73928356 84.47385816 23.7598877 87.8684845 C23.77649164 89.94788842 23.79336357 92.02729023 23.81054688 94.10668945 C23.8168235 95.52745033 23.8168235 95.52745033 23.82322693 96.97691345 C23.83157059 97.84762482 23.83991425 98.71833618 23.84851074 99.61543274 C23.85366447 100.37000417 23.85881821 101.1245756 23.86412811 101.90201283 C24.00274182 104.04233621 24.41471626 105.94064579 25 108 C27.49552484 107.21869929 27.49552484 107.21869929 30 106 C30.91586542 103.25240374 31.13197814 101.60589682 31.15148926 98.77365112 C31.16400475 97.4822673 31.16400475 97.4822673 31.17677307 96.16479492 C31.18095749 95.22337646 31.18514191 94.28195801 31.18945312 93.31201172 C31.19774643 92.31831573 31.20603973 91.32461975 31.21458435 90.30081177 C31.2319906 88.14168774 31.24715584 85.98254477 31.26036072 83.82339096 C31.28135934 80.41192393 31.3083827 77.0005526 31.33703613 73.58914185 C31.40692685 65.11851742 31.46636193 56.6478253 31.52606201 48.17712402 C31.5768972 41.01824998 31.6316841 33.85942802 31.69187927 26.70062637 C31.71855193 23.32971979 31.73930473 19.9588086 31.7598877 16.58786011 C31.77648197 14.53497076 31.79335303 12.48208363 31.81054688 10.42919922 C31.81473129 9.4837323 31.81891571 8.53826538 31.82322693 7.56414795 C31.88615243 1.11384757 31.88615243 1.11384757 33 0 C35.5 -0.125 35.5 -0.125 38 0 C40.11258119 2.11258119 39.16489125 6.84883828 39.17358398 9.77075195 C39.180271 10.69106201 39.18695801 11.61137207 39.19384766 12.55957031 C39.20793418 14.56539376 39.21981664 16.57123359 39.22979546 18.57708168 C39.24615307 21.74978681 39.26938923 24.92237088 39.29469299 28.09501648 C39.36560924 37.11821497 39.42559079 46.14146358 39.47680664 55.16479492 C39.50857906 60.67732575 39.54985362 66.18971918 39.59700203 71.7021389 C39.61303659 73.80607826 39.62535141 75.91004931 39.63390923 78.01403236 C39.64604791 80.9565184 39.6701928 83.89868098 39.69702148 86.84106445 C39.69761063 87.71343246 39.69819977 88.58580048 39.69880676 89.48460388 C39.71338425 90.68970108 39.71338425 90.68970108 39.72825623 91.91914368 C39.73248816 92.61472035 39.7367201 93.31029703 39.74108028 94.02695179 C40.05052628 96.38502583 40.74561807 97.98568645 42 100 C44.05000871 100.80528889 44.05000871 100.80528889 46 101 C47.19612613 96.27782178 47.16585668 91.67273261 47.18945312 86.83520508 C47.19774643 85.9208519 47.20603973 85.00649872 47.21458435 84.06443787 C47.23194643 82.0843304 47.24712364 80.10420283 47.26036072 78.12406349 C47.28142448 74.99359965 47.30844175 71.86323739 47.33703613 68.73283386 C47.40679281 60.96217921 47.46635272 53.19145254 47.52606201 45.42071533 C47.57693527 38.84715566 47.63172634 32.27365203 47.69187927 25.70017052 C47.71850748 22.61017379 47.7392851 19.52017194 47.7598877 16.43013 C47.77648409 14.5456212 47.79335534 12.66111479 47.81054688 10.77661133 C47.81473129 9.91268768 47.81891571 9.04876404 47.82322693 8.15866089 C47.88614975 2.22770049 47.88614975 2.22770049 49 0 C50.65 0 52.3 0 54 0 C56.22749519 3.59450201 56.30496313 6.66347601 56.41064453 10.84350586 C56.43044373 11.5259285 56.45024292 12.20835114 56.47064209 12.91145325 C56.53397026 15.17910961 56.58358711 17.44684065 56.6328125 19.71484375 C56.67410439 21.32444514 56.71610035 22.9340286 56.75875854 24.54359436 C56.84683106 27.94227768 56.92852501 31.34103487 57.00537109 34.73999023 C57.10129114 38.97523691 57.20908039 43.21006247 57.3212471 47.44490623 C57.58497436 57.44602089 57.79088377 67.44737984 57.95637512 77.45058441 C58.00081805 80.04780658 58.05063504 82.64488997 58.10095215 85.24200439 C58.18113546 89.5176447 58.23770178 93.79304643 58.27755356 98.06924629 C58.29541448 99.67186171 58.32006817 101.27441817 58.3520546 102.87681389 C58.64907792 118.33977228 58.64907792 118.33977228 54 125 C52.21655273 126.83862305 52.21655273 126.83862305 50.43359375 128.01171875 C49.78326172 128.45966797 49.13292969 128.90761719 48.46289062 129.36914062 C47.79451172 129.80419922 47.12613281 130.23925781 46.4375 130.6875 C45.09685674 131.57826297 43.76200085 132.47780863 42.43359375 133.38671875 C41.84634521 133.77045654 41.25909668 134.15419434 40.65405273 134.54956055 C37.88477736 136.97793914 36.22394071 139.27828841 35.73838806 143.01133728 C35.63434303 145.5365595 35.63740807 148.04314215 35.671875 150.5703125 C35.67338562 151.53427948 35.67489624 152.49824646 35.67645264 153.49142456 C35.68592642 156.70287939 35.7177126 159.91369946 35.75 163.125 C35.76200692 165.39973482 35.77305521 167.67447488 35.78320312 169.94921875 C35.8944963 189.7851659 36.26404026 209.61857081 36.64135742 229.45092773 C37.04388699 250.96895737 37.11342463 272.47898581 37 294 C33.40523628 295.19825457 30.11450601 295.14608744 26.375 295.125 C25.68148437 295.12886719 24.98796875 295.13273437 24.2734375 295.13671875 C19.12666646 295.12666646 19.12666646 295.12666646 18 294 C17.90086323 292.3383333 17.87200684 290.67243329 17.87060547 289.0078125 C17.86593765 287.38871475 17.86593765 287.38871475 17.86117554 285.73690796 C17.86315948 284.54497833 17.86514343 283.35304871 17.8671875 282.125 C17.86520859 280.26133286 17.86520859 280.26133286 17.8631897 278.36001587 C17.86158559 274.95181417 17.86500442 271.54369676 17.87142944 268.13550568 C17.87499799 266.00120407 17.87661891 263.8669092 17.87768555 261.73260498 C17.89029821 241.358794 18.10500029 220.99535289 18.5 200.625 C18.54516409 198.25358224 18.59024974 195.88216299 18.63525391 193.51074219 C18.65701691 192.36637695 18.67877991 191.22201172 18.70120239 190.04296875 C19.03408469 173.20491651 19.03408469 173.20491651 19.23217773 156.3649292 C19.24930454 154.33252872 19.28155904 152.30027284 19.31445312 150.26806641 C19.31896484 149.09163574 19.32347656 147.91520508 19.328125 146.703125 C19.3374707 145.70958008 19.34681641 144.71603516 19.35644531 143.69238281 C18.84535397 139.83189284 17.34598905 137.19790712 14.43774414 134.60961914 C13.89239014 134.25504639 13.34703613 133.90047363 12.78515625 133.53515625 C12.18123047 133.12716797 11.57730469 132.71917969 10.95507812 132.29882812 C9.69788544 131.47756603 8.44007669 130.65724619 7.18164062 129.83789062 C2.15966507 126.44177297 -1.03702484 122.88892549 -3 117 C-3.09598671 115.16864597 -3.13074467 113.33386661 -3.1328125 111.5 C-3.13482666 110.32888672 -3.13684082 109.15777344 -3.13891602 107.95117188 C-3.13432373 106.64728516 -3.12973145 105.34339844 -3.125 104 C-3.12378143 103.32138916 -3.12256287 102.64277832 -3.12130737 101.94360352 C-3.06327243 73.62904701 -2.37516818 45.30338306 -1.55929565 17.00146484 C-1.50145145 14.98802195 -1.44709198 12.97447991 -1.39282227 10.9609375 C-1.35600342 9.78660156 -1.31918457 8.61226562 -1.28125 7.40234375 C-1.25095703 6.39679443 -1.22066406 5.39124512 -1.18945312 4.35522461 C-1 2 -1 2 0 0 Z " fill="#FDF9F8" transform="translate(163,99)"/>
<path d="M0 0 C3 0 3 0 5.65003967 2.40863037 C8.84439027 6.51552089 8.68493843 10.42616678 8.59936523 15.46191406 C8.60330795 16.39592041 8.60725067 17.32992676 8.61131287 18.29223633 C8.61800468 21.36725164 8.58890628 24.44076958 8.55859375 27.515625 C8.55434265 29.65459912 8.55201496 31.79357786 8.55152893 33.93255615 C8.54536995 38.40805057 8.52269471 42.88304323 8.48706055 47.35839844 C8.44167923 53.10438673 8.42702856 58.8499222 8.42332363 64.59607315 C8.41890348 69.00889579 8.40361637 73.42162277 8.3844471 77.83440399 C8.37555011 79.95396893 8.36882731 82.07354412 8.36428642 84.19312286 C8.35527944 87.14747956 8.33292268 90.10141946 8.30639648 93.05566406 C8.30573181 93.93671814 8.30506714 94.81777222 8.30438232 95.7255249 C8.22917675 101.77082325 8.22917675 101.77082325 6 104 C4.68 104 3.36 104 2 104 C0.35459345 101.10555755 -0.24885406 99.04391769 -0.24050903 95.72259521 C-0.24325836 94.87568115 -0.24600769 94.02876709 -0.24884033 93.15618896 C-0.24164978 92.23549622 -0.23445923 91.31480347 -0.22705078 90.36621094 C-0.22734283 89.39026978 -0.22763489 88.41432861 -0.22793579 87.40881348 C-0.22654277 84.18391012 -0.2109827 80.95923798 -0.1953125 77.734375 C-0.19158228 75.4980685 -0.18873535 73.26176037 -0.18673706 71.02545166 C-0.17910137 65.13996874 -0.15945333 59.25458454 -0.1373291 53.36914062 C-0.11686936 47.36329484 -0.10773506 41.35743309 -0.09765625 35.3515625 C-0.07620746 23.56766496 -0.0420722 11.78384069 0 0 Z " fill="#A33C30" transform="translate(186,103)"/>
<path d="M0 0 C1.1446875 1.175625 1.1446875 1.175625 2.3125 2.375 C4.90891805 5.07257717 4.90891805 5.07257717 8 7 C8.29685455 9.81956747 8.39896369 12.41982896 8.37231445 15.24169922 C8.37596512 16.09388031 8.37961578 16.9460614 8.38337708 17.82406616 C8.39150633 20.65114047 8.37785066 23.47764575 8.36328125 26.3046875 C8.36276283 28.26522827 8.36327982 30.22576956 8.36479187 32.18630981 C8.36470203 36.30055475 8.35425123 40.4146042 8.33618164 44.52880859 C8.31352397 49.80388055 8.31294379 55.07866593 8.31969929 60.35377312 C8.32304088 64.40465849 8.31640507 68.4554785 8.30657005 72.50635147 C8.30271881 74.45122053 8.30156952 76.39609686 8.3031559 78.34096909 C8.30352666 81.0606241 8.29090212 83.77991185 8.2746582 86.49951172 C8.27713562 87.30485352 8.27961304 88.11019531 8.28216553 88.93994141 C8.2457226 92.76207128 8.16675795 95.76205741 6 99 C4.68 99 3.36 99 2 99 C-0.41528843 94.2831106 -0.2701969 89.96976187 -0.22705078 84.8034668 C-0.22734283 83.88590103 -0.22763489 82.96833527 -0.22793579 82.02296448 C-0.22654547 78.99828547 -0.21099816 75.97385458 -0.1953125 72.94921875 C-0.19158132 70.84886306 -0.18873484 68.74850563 -0.18673706 66.64814758 C-0.17910892 61.1259987 -0.15946739 55.60395538 -0.1373291 50.08184814 C-0.11685307 44.44455391 -0.10773158 38.80724259 -0.09765625 33.16992188 C-0.07622079 22.11323492 -0.04209466 11.05662625 0 0 Z " fill="#A1382B" transform="translate(170,101)"/>
<path d="M0 0 C2.89115399 1.29603455 4.96201147 2.55803748 7 5 C7.28590291 7.928368 7.38904711 10.64238044 7.35644531 13.57055664 C7.35848969 14.44560349 7.36053406 15.32065033 7.36264038 16.22221375 C7.36565173 19.11840623 7.34716162 22.01403131 7.328125 24.91015625 C7.32506807 26.9188981 7.32319145 28.92764207 7.32244873 30.93638611 C7.31784354 35.14720769 7.30340847 39.35783825 7.28125 43.56860352 C7.25294934 48.97494522 7.24203692 54.38113647 7.2375679 59.7875452 C7.23341766 63.93527237 7.22360379 68.0829689 7.21169281 72.23068047 C7.20598288 74.22465201 7.20122657 76.21862652 7.19742584 78.21260262 C7.19057577 80.99473408 7.17694973 83.77674479 7.16113281 86.55883789 C7.16001495 87.38850067 7.15889709 88.21816345 7.15774536 89.07296753 C7.11469268 94.77061465 7.11469268 94.77061465 6 97 C1.125 96.125 1.125 96.125 0 95 C-0.09526806 92.04753646 -0.12552452 89.11851579 -0.11352539 86.16577148 C-0.11367142 85.23903625 -0.11381744 84.31230103 -0.1139679 83.35748291 C-0.11326838 80.27866313 -0.10547421 77.19990303 -0.09765625 74.12109375 C-0.09579221 71.99259982 -0.09436824 69.86410547 -0.09336853 67.73561096 C-0.08954228 62.1213768 -0.07971108 56.50716832 -0.06866455 50.89294434 C-0.05845273 45.16886747 -0.0538714 39.44478647 -0.04882812 33.72070312 C-0.03808891 22.48045744 -0.0210112 11.24023085 0 0 Z " fill="#A2392D" transform="translate(203,103)"/>
<path d="M0 0 C2.0625 1.625 2.0625 1.625 4 4 C3.75830078 6.62744141 3.75830078 6.62744141 3 10 C2.82843933 13.31880514 2.86000188 16.6382105 2.8671875 19.9609375 C2.86586823 20.93131454 2.86454895 21.90169159 2.8631897 22.901474 C2.8612739 26.05934852 2.86761645 29.21713446 2.875 32.375 C2.87588623 33.45389496 2.87677246 34.53278992 2.87768555 35.64437866 C2.89044987 48.87570432 3.02450547 62.0895811 3.5 75.3125 C3.85577397 85.27096012 4.15885527 95.2225664 4.25 105.1875 C4.27126953 106.3113208 4.29253906 107.4351416 4.31445312 108.59301758 C4.31896484 109.62837646 4.32347656 110.66373535 4.328125 111.73046875 C4.34214355 113.08241333 4.34214355 113.08241333 4.35644531 114.46166992 C3.91866892 117.57917757 2.8615514 119.48158041 1 122 C0.34 122 -0.32 122 -1 122 C-1.3403125 123.175625 -1.3403125 123.175625 -1.6875 124.375 C-3 127 -3 127 -5.625 128.3125 C-6.40875 128.539375 -7.1925 128.76625 -8 129 C-8.33 128.01 -8.66 127.02 -9 126 C-7.27473958 124.92578125 -5.54947917 123.8515625 -3.82421875 122.77734375 C-0.24290093 119.28805123 0.8928357 115.1169309 1.35644531 110.28491211 C1.3625807 108.94903672 1.35237508 107.6130131 1.328125 106.27734375 C1.32661438 105.54847458 1.32510376 104.81960541 1.32354736 104.06864929 C1.31418911 101.69122896 1.28254739 99.31470675 1.25 96.9375 C1.23803652 95.25765588 1.226981 93.57780507 1.21679688 91.89794922 C1.13200175 80.97743596 0.80396966 70.07304418 0.35864258 59.16137695 C-0.37323234 39.4559403 -0.08151014 19.71542086 0 0 Z " fill="#A24D41" transform="translate(219,102)"/>
<path d="M0 0 C0.66 0.33 1.32 0.66 2 1 C1.97494385 1.70229736 1.9498877 2.40459473 1.92407227 3.12817383 C1.05118994 28.0894413 0.50448909 53.05678468 0.09960938 78.02978516 C0.03867021 81.78227182 -0.02940197 85.53445168 -0.10742188 89.28662109 C-0.18573931 93.08062911 -0.24510384 96.87435355 -0.28610229 100.66894531 C-0.31157486 102.61675692 -0.3567117 104.56428087 -0.40258789 106.51171875 C-0.44692561 113.20251352 -0.07818927 118.50144816 4 124 C5.79683446 125.89029723 5.79683446 125.89029723 7.75 127 C8.8225 127.66 9.895 128.32 11 129 C10.01 129.99 10.01 129.99 9 131 C6.3125 130.6875 6.3125 130.6875 3 129 C-3.49800755 120.11561878 -2.66549729 109.69586997 -2.5234375 99.26953125 C-2.5166334 97.46596422 -2.51192007 95.66238822 -2.50918579 93.85881042 C-2.49585437 89.13850045 -2.45168711 84.41895633 -2.40161133 79.69891357 C-2.36615517 75.85313997 -2.35311788 72.00744237 -2.34119225 68.16153431 C-2.32635912 63.55165318 -2.30121147 58.94185056 -2.2734375 54.33203125 C-2.26852673 53.46203806 -2.26361595 52.59204487 -2.25855637 51.69568825 C-2.24214876 49.21736953 -2.21874364 46.73922235 -2.19287109 44.26098633 C-2.18861115 43.54026947 -2.1843512 42.81955261 -2.17996216 42.07699585 C-2.1201439 37.31223341 -1.63896836 32.72241598 -1 28 C-0.86421143 25.69950597 -0.75823737 23.39703888 -0.68359375 21.09375 C-0.64169922 19.85625 -0.59980469 18.61875 -0.55664062 17.34375 C-0.51732422 16.0753125 -0.47800781 14.806875 -0.4375 13.5 C-0.39431641 12.200625 -0.35113281 10.90125 -0.30664062 9.5625 C-0.2011749 6.37509155 -0.09905552 3.18761302 0 0 Z " fill="#D3675B" transform="translate(161,100)"/>
<path d="M0 0 C2.5625 -0.25 2.5625 -0.25 5 0 C6.87788672 1.87788672 6.12008587 4.59165909 6.12442017 7.08978271 C6.12082489 7.96515686 6.11722961 8.84053101 6.11352539 9.74243164 C6.11367142 10.6594133 6.11381744 11.57639496 6.1139679 12.52116394 C6.1132684 15.56751836 6.10547428 18.61381245 6.09765625 21.66015625 C6.0957922 23.76622993 6.09436824 25.87230403 6.09336853 27.9783783 C6.08954231 33.53342883 6.07971114 39.08845341 6.06866455 44.64349365 C6.05845267 50.3072474 6.05387139 55.97100533 6.04882812 61.63476562 C6.03808896 72.75652185 6.0210113 83.87825877 6 95 C5.67 95 5.34 95 5 95 C4.67 64.97 4.34 34.94 4 4 C3.01 3.67 2.02 3.34 1 3 C-0.10634814 7.47636629 -0.17177088 11.8790921 -0.20532227 16.4621582 C-0.21522186 17.3016954 -0.22512146 18.1412326 -0.23532104 19.00621033 C-0.26681598 21.77103897 -0.29164585 24.53588478 -0.31640625 27.30078125 C-0.33698615 29.22178077 -0.3579829 31.14277588 -0.37937927 33.06376648 C-0.43449292 38.11235973 -0.48394932 43.16099313 -0.53222656 48.20965576 C-0.58251987 53.36441609 -0.63816503 58.51911835 -0.69335938 63.67382812 C-0.80080995 73.78250243 -0.90228388 83.89122723 -1 94 C-1.33 94 -1.66 94 -2 94 C-2.04628986 82.1869024 -2.08185215 70.37382629 -2.10362434 58.56065655 C-2.11407258 53.0756428 -2.12825077 47.59069099 -2.15087891 42.10571289 C-2.17257017 36.81486716 -2.18456079 31.5240811 -2.18975449 26.23319435 C-2.19345693 24.21212639 -2.20068664 22.19106179 -2.21146011 20.17001915 C-2.2259256 17.34463759 -2.22798001 14.51950428 -2.22705078 11.6940918 C-2.23424133 10.85396042 -2.24143188 10.01382904 -2.24884033 9.14823914 C-2.23489311 5.24301568 -2.21654725 3.32482088 0 0 Z " fill="#E1BBB6" transform="translate(180,99)"/>
<path d="M0 0 C3.77636701 3.77636701 3.04858749 10.13968285 3.08229065 15.27125549 C3.0677332 16.7584581 3.04729127 18.24561186 3.02172852 19.73266602 C3.01212097 20.55328018 3.00251343 21.37389435 2.99261475 22.21937561 C2.95996701 24.89764948 2.91950758 27.57574219 2.87890625 30.25390625 C2.85457155 32.12433762 2.83072974 33.99477547 2.80735779 35.86521912 C2.74484987 40.76261834 2.67569084 45.65990141 2.60510254 50.55718994 C2.53411637 55.56476603 2.4694813 60.57242375 2.40429688 65.58007812 C2.27571437 75.3868085 2.14009867 85.19342785 2 95 C1.34 94.67 0.68 94.34 0 94 C0 62.98 0 31.96 0 0 Z " fill="#AA564C" transform="translate(170,101)"/>
<path d="M0 0 C0.33 0 0.66 0 1 0 C1.81375171 24.77587479 2.13657291 49.51935279 2.06866455 74.30773926 C2.05813194 78.58731553 2.05380534 82.86689867 2.04882812 87.14648438 C2.03834265 95.43100701 2.02145525 103.71549851 2 112 C-0.475 112.495 -0.475 112.495 -3 113 C-3 113.99 -3 114.98 -3 116 C-4.65 116 -6.3 116 -8 116 C-8 115.67 -8 115.34 -8 115 C-9.65 114.67 -11.3 114.34 -13 114 C-13 113.67 -13 113.34 -13 113 C-12.40832031 112.93941406 -11.81664062 112.87882812 -11.20703125 112.81640625 C-10.41683594 112.73261719 -9.62664062 112.64882813 -8.8125 112.5625 C-8.03519531 112.48128906 -7.25789062 112.40007812 -6.45703125 112.31640625 C-3.93971527 111.99223678 -1.48574876 111.50873664 1 111 C0.96970703 110.05350586 0.93941406 109.10701172 0.90820312 108.13183594 C0.11221713 82.52391502 -0.09094868 56.9305356 -0.0625 31.3125 C-0.06164398 30.53617722 -0.06078796 29.75985443 -0.05990601 28.96000671 C-0.04847455 19.30664719 -0.02833902 9.65332516 0 0 Z " fill="#A6493D" transform="translate(199,282)"/>
<path d="M0 0 C0.75410156 0.0515625 1.50820313 0.103125 2.28515625 0.15625 C3.06246094 0.22070312 3.83976562 0.28515625 4.640625 0.3515625 C5.82978516 0.43664062 5.82978516 0.43664062 7.04296875 0.5234375 C8.99294235 0.66439945 10.94191171 0.8191337 12.890625 0.9765625 C12.890625 1.3065625 12.890625 1.6365625 12.890625 1.9765625 C-8.50398821 4.82850338 -29.59044704 6.25341757 -51.109375 3.9765625 C-51.109375 3.6465625 -51.109375 3.3165625 -51.109375 2.9765625 C-49.82772461 2.95674316 -48.54607422 2.93692383 -47.22558594 2.91650391 C-42.46936433 2.84041747 -37.71344743 2.75170452 -32.95751953 2.65917969 C-30.89931251 2.62090255 -28.84103888 2.58604746 -26.78271484 2.5546875 C-23.82365112 2.50900972 -20.86504543 2.45101948 -17.90625 2.390625 C-16.98632263 2.37907379 -16.06639526 2.36752258 -15.11859131 2.35562134 C-13.82770599 2.3258168 -13.82770599 2.3258168 -12.51074219 2.29541016 C-11.75573425 2.28208649 -11.00072632 2.26876282 -10.22283936 2.2550354 C-6.35451441 1.74533971 -4.06689305 -0.30809796 0 0 Z " fill="#D5695D" transform="translate(274.109375,490.0234375)"/>
<path d="M0 0 C0.33 0 0.66 0 1 0 C1.00364563 0.68380737 1.00729126 1.36761475 1.01104736 2.07214355 C1.05296478 9.21054671 1.12237596 16.34831246 1.20751953 23.48632812 C1.23787523 26.14791611 1.25692114 28.8089002 1.27099609 31.47070312 C1.29248215 35.30381643 1.33916563 39.13593602 1.390625 42.96875 C1.39185364 44.15239136 1.39308228 45.33603271 1.39434814 46.55554199 C1.52794936 54.14774831 2.22032911 60.31251621 7.921875 65.875 C8.82679688 66.431875 8.82679688 66.431875 9.75 67 C10.8225 67.66 11.895 68.32 13 69 C12.01 69.99 12.01 69.99 11 71 C8.3125 70.6875 8.3125 70.6875 5 69 C-0.24094744 61.18675865 -0.68286528 53.37621297 -0.48828125 44.23828125 C-0.47766914 42.33057198 -0.47766914 42.33057198 -0.46684265 40.38432312 C-0.44377017 37.04148702 -0.39904691 33.70043834 -0.34332275 30.35809326 C-0.29170246 26.9322433 -0.26923851 23.50620686 -0.24414062 20.08007812 C-0.18929231 13.38623536 -0.10583172 6.69322058 0 0 Z " fill="#D2574A" transform="translate(159,160)"/>
<path d="M0 0 C0.66 0.33 1.32 0.66 2 1 C2.08736736 4.72901814 2.14051482 8.45777165 2.1875 12.1875 C2.22520508 13.77014648 2.22520508 13.77014648 2.26367188 15.38476562 C2.27817383 16.91713867 2.27817383 16.91713867 2.29296875 18.48046875 C2.31653442 19.88655396 2.31653442 19.88655396 2.34057617 21.32104492 C1.93250397 24.5309204 0.92422454 26.41906549 -1 29 C-1.66 29 -2.32 29 -3 29 C-3.226875 29.78375 -3.45375 30.5675 -3.6875 31.375 C-5 34 -5 34 -7.625 35.3125 C-8.40875 35.539375 -9.1925 35.76625 -10 36 C-10.495 34.515 -10.495 34.515 -11 33 C-9.27473958 31.92578125 -7.54947917 30.8515625 -5.82421875 29.77734375 C-0.30541959 24.40035528 -0.48516454 17.27987796 -0.3125 10.0625 C-0.27833984 9.09248047 -0.24417969 8.12246094 -0.20898438 7.12304688 C-0.12711426 4.74881363 -0.05776922 2.37492123 0 0 Z " fill="#A24237" transform="translate(221,195)"/>
<path d="M0 0 C2.31 0 4.62 0 7 0 C7.66 1.32 8.32 2.64 9 4 C7.29798107 5.756532 5.58884897 7.50507087 3.875 9.25 C3.400625 9.74113281 2.92625 10.23226563 2.4375 10.73828125 C-0.8004632 14.02000071 -4.08565821 16.56079592 -8 19 C-7.4409112 15.75728494 -6.5867822 14.06942576 -4 12 C-3.34 12 -2.68 12 -2 12 C-1.814375 11.0409375 -1.814375 11.0409375 -1.625 10.0625 C-1.41875 9.381875 -1.2125 8.70125 -1 8 C-0.34 7.67 0.32 7.34 1 7 C0.67 4.69 0.34 2.38 0 0 Z " fill="#CC4E3F" transform="translate(416,416)"/>
<path d="M0 0 C1.76659003 1.61516802 3.38477655 3.23973607 5 5 C5.44794922 5.45955078 5.89589844 5.91910156 6.35742188 6.39257812 C12.02987832 13.54925625 10.53401636 22.88677536 10.3125 31.5 C10.28738817 33.19788387 10.26458008 34.89580346 10.24414062 36.59375 C10.18936688 40.73005668 10.10325713 44.86463117 10 49 C9.67 49 9.34 49 9 49 C8.98541748 48.1028125 8.97083496 47.205625 8.95581055 46.28125 C8.8943692 42.918693 8.8201487 39.55690297 8.73754883 36.19482422 C8.70451197 34.74603719 8.67641545 33.29712801 8.65356445 31.84814453 C8.56866481 20.57433784 8.56866481 20.57433784 5 10 C4.34 9.67 3.68 9.34 3 9 C3 7.68 3 6.36 3 5 C2.34 5 1.68 5 1 5 C0.67 3.35 0.34 1.7 0 0 Z " fill="#A85048" transform="translate(281,219)"/>
<path d="M0 0 C0.625 2.5625 0.625 2.5625 1 5 C0.01 5.495 0.01 5.495 -1 6 C-1.33 5.01 -1.66 4.02 -2 3 C-3.65 2.67 -5.3 2.34 -7 2 C-7.66 4.97 -8.32 7.94 -9 11 C-12 10 -12 10 -13.1875 7.9375 C-13.455625 7.298125 -13.72375 6.65875 -14 6 C-9.95829675 0.24363477 -9.95829675 0.24363477 -5.3125 -0.9375 C-2 -1 -2 -1 0 0 Z " fill="#D65446" transform="translate(219,97)"/>
<path d="M0 0 C0 3.98919362 -1.17179136 6.46966608 -3 10 C-4.65261839 11.02304948 -6.31791365 12.02616054 -8 13 C-8.88658466 15.59122743 -8.88658466 15.59122743 -9 18 C-8.34 18.33 -7.68 18.66 -7 19 C-7.99 19.33 -8.98 19.66 -10 20 C-10.33 20.66 -10.66 21.32 -11 22 C-11.93751262 19.11534579 -12.4058797 16.96223188 -11.19921875 14.1015625 C-8.05759959 8.92351919 -4.09665548 4.43902727 0 0 Z " fill="#AE4D44" transform="translate(319,216)"/>
<path d="M0 0 C0.33 0 0.66 0 1 0 C1.21914063 0.88300781 1.43828125 1.76601562 1.6640625 2.67578125 C3.83266033 10.88295433 6.54993474 17.73156007 11 25 C10.01 25 9.02 25 8 25 C7.71125 24.195625 7.4225 23.39125 7.125 22.5625 C6.26737432 19.8673532 6.26737432 19.8673532 4 19 C3.67 19.66 3.34 20.32 3 21 C3 19.02 3 17.04 3 15 C2.01 15.99 1.02 16.98 0 18 C0 12.06 0 6.12 0 0 Z " fill="#AE534A" transform="translate(264,187)"/>
<path d="M0 0 C4.92908146 3.87792288 8.5423711 7.76116833 12 13 C9.03 12.505 9.03 12.505 6 12 C5.7525 11.030625 5.505 10.06125 5.25 9.0625 C4.35259966 5.93152932 4.35259966 5.93152932 2.125 5 C-0.42047902 5 -1.84377121 5.69086109 -4 7 C-4 6.01 -4 5.02 -4 4 C-3.01 3.67 -2.02 3.34 -1 3 C-0.67 2.01 -0.34 1.02 0 0 Z " fill="#DA6457" transform="translate(422,72)"/>
<path d="M0 0 C0.33 0 0.66 0 1 0 C1 8.25 1 16.5 1 25 C0.34 24.67 -0.32 24.34 -1 24 C-1.22644569 20.75099666 -1.42797517 17.50090961 -1.625 14.25 C-1.68945312 13.32960937 -1.75390625 12.40921875 -1.8203125 11.4609375 C-1.871875 10.57148438 -1.9234375 9.68203125 -1.9765625 8.765625 C-2.02893066 7.94868164 -2.08129883 7.13173828 -2.13525391 6.29003906 C-1.98414765 3.73159732 -1.28926961 2.19131832 0 0 Z " fill="#AA5047" transform="translate(262,159)"/>
<path d="M0 0 C1.65 0 3.3 0 5 0 C5.391875 0.9075 5.78375 1.815 6.1875 2.75 C7.78331976 6.10275385 7.78331976 6.10275385 10.625 8.0625 C13 10 13 10 13.8125 12.75 C13.874375 13.4925 13.93625 14.235 14 15 C8.79814679 10.75358921 4.15632577 6.29331458 0 1 C0 0.67 0 0.34 0 0 Z " fill="#D55E4F" transform="translate(55,403)"/>
<path d="M0 0 C0.33 0.99 0.66 1.98 1 3 C0.360625 3.556875 -0.27875 4.11375 -0.9375 4.6875 C-3.19680987 7.22066561 -3.63149047 8.68341424 -4 12 C-4.66 11.34 -5.32 10.68 -6 10 C-6.66 10 -7.32 10 -8 10 C-8.33 10.66 -8.66 11.32 -9 12 C-9.33 11.01 -9.66 10.02 -10 9 C-7.10087768 4.90712143 -4.51347752 2.32121701 0 0 Z " fill="#AB433A" transform="translate(209,229)"/>
<path d="M0 0 C3.71045247 1.57780923 6.29906384 3.90703248 9.25 6.625 C10.14203125 7.44226563 11.0340625 8.25953125 11.953125 9.1015625 C12.96632813 10.04128906 12.96632813 10.04128906 14 11 C11 12 11 12 8.5625 10.8125 C6.06964275 9.04925951 4.08417623 7.22312132 2 5 C1.4225 4.4225 0.845 3.845 0.25 3.25 C-0.1625 2.8375 -0.575 2.425 -1 2 C-0.67 1.34 -0.34 0.68 0 0 Z " fill="#DA695B" transform="translate(406,58)"/>
<path d="M0 0 C0.66 0.66 1.32 1.32 2 2 C-2.455 8.93 -2.455 8.93 -7 16 C-7.33 14.68 -7.66 13.36 -8 12 C-7.34 12 -6.68 12 -6 12 C-6.350625 11.236875 -6.70125 10.47375 -7.0625 9.6875 C-8 7 -8 7 -7 4 C-6.34 4.33 -5.68 4.66 -5 5 C-4.54625 4.505 -4.0925 4.01 -3.625 3.5 C-2 2 -2 2 0 2 C0 1.34 0 0.68 0 0 Z " fill="#CA5146" transform="translate(456,376)"/>
<path d="M0 0 C1.32 0.33 2.64 0.66 4 1 C-1.445 7.93 -1.445 7.93 -7 15 C-7.33 14.01 -7.66 13.02 -8 12 C-7.67 11.34 -7.34 10.68 -7 10 C-6.34 10 -5.68 10 -5 10 C-5 9.34 -5 8.68 -5 8 C-4.34 8 -3.68 8 -3 8 C-3.33 6.02 -3.66 4.04 -4 2 C-3.34 1.67 -2.68 1.34 -2 1 C-2 1.66 -2 2.32 -2 3 C-1.34 3 -0.68 3 0 3 C0 2.01 0 1.02 0 0 Z " fill="#C7584E" transform="translate(444,392)"/>
<path d="M0 0 C4.875 2.75 4.875 2.75 6 5 C6.08573394 7.25120742 6.10712188 9.50499303 6.09765625 11.7578125 C6.0962413 12.42086395 6.09482635 13.08391541 6.09336853 13.76705933 C6.08776754 15.88641863 6.075215 18.00567259 6.0625 20.125 C6.05748512 21.56119639 6.05292219 22.99739444 6.04882812 24.43359375 C6.03779782 27.95576345 6.02053259 31.47787145 6 35 C5.67 35 5.34 35 5 35 C4.98018066 34.14245117 4.96036133 33.28490234 4.93994141 32.40136719 C4.86170479 29.21052358 4.77500657 26.0200526 4.68261719 22.82958984 C4.64440662 21.45044757 4.60953998 20.07120833 4.578125 18.69189453 C4.53230376 16.70583033 4.47333737 14.72008321 4.4140625 12.734375 C4.3826416 11.54038086 4.3512207 10.34638672 4.31884766 9.11621094 C4.0196713 6.19225461 3.52538162 4.47272389 2 2 C1.34 2 0.68 2 0 2 C0 1.34 0 0.68 0 0 Z " fill="#CF584B" transform="translate(176,233)"/>
<path d="M0 0 C0.99 0.33 1.98 0.66 3 1 C2.67 1.66 2.34 2.32 2 3 C2.928125 2.690625 2.928125 2.690625 3.875 2.375 C4.926875 2.189375 4.926875 2.189375 6 2 C6.66 2.66 7.32 3.32 8 4 C6.37750059 4.83819158 4.75191503 5.6704116 3.125 6.5 C1.76761719 7.19609375 1.76761719 7.19609375 0.3828125 7.90625 C-2 9 -2 9 -4 9 C-4 8.34 -4 7.68 -4 7 C-3.01 6.67 -2.02 6.34 -1 6 C-1.33 5.34 -1.66 4.68 -2 4 C-1.0625 1.875 -1.0625 1.875 0 0 Z " fill="#CA4F43" transform="translate(352,464)"/>
<path d="M0 0 C0.66 0.33 1.32 0.66 2 1 C2 1.99 2 2.98 2 4 C1.01 4.33 0.02 4.66 -1 5 C-1.33 6.65 -1.66 8.3 -2 10 C-4.66666667 10 -7.33333333 10 -10 10 C-6.7 6.7 -3.4 3.4 0 0 Z " fill="#D96656" transform="translate(80,64)"/>
<path d="M0 0 C0.78375 0.04125 1.5675 0.0825 2.375 0.125 C-0.70013046 3.49868681 -3.91018856 5.63401962 -7.875 7.875 C-9.49148438 8.79539062 -9.49148438 8.79539062 -11.140625 9.734375 C-12.37039063 10.42273438 -12.37039063 10.42273438 -13.625 11.125 C-13.955 10.135 -14.285 9.145 -14.625 8.125 C-11.32950534 6.40235506 -8.29381155 4.83054068 -4.625 4.125 C-4.625 3.465 -4.625 2.805 -4.625 2.125 C-2.625 0.125 -2.625 0.125 0 0 Z " fill="#C75A51" transform="translate(381.625,452.875)"/>
<path d="M0 0 C1.1796875 1.640625 1.1796875 1.640625 2 4 C0.8828125 6.796875 0.8828125 6.796875 -0.875 9.75 C-1.73738281 11.22726562 -1.73738281 11.22726562 -2.6171875 12.734375 C-3.07351563 13.48203125 -3.52984375 14.2296875 -4 15 C-4.33 14.34 -4.66 13.68 -5 13 C-5.66 12.67 -6.32 12.34 -7 12 C-6.319375 11.1646875 -6.319375 11.1646875 -5.625 10.3125 C-3.95562582 7.93685213 -3.03812191 5.69911696 -2 3 C-1.34 2.01 -0.68 1.02 0 0 Z " fill="#C8564B" transform="translate(463,362)"/>
<path d="M0 0 C6.27 0 12.54 0 19 0 C19.33 1.32 19.66 2.64 20 4 C13.15182898 3.51358785 6.66957927 2.64006048 0 1 C0 0.67 0 0.34 0 0 Z " fill="#D7685E" transform="translate(191,488)"/>
<path d="M0 0 C0.33 0 0.66 0 1 0 C1 3.3 1 6.6 1 10 C-0.65 10.33 -2.3 10.66 -4 11 C-4 11.99 -4 12.98 -4 14 C-5.65 14 -7.3 14 -9 14 C-9 13.67 -9 13.34 -9 13 C-10.65 12.67 -12.3 12.34 -14 12 C-14 11.67 -14 11.34 -14 11 C-13.40832031 10.93941406 -12.81664062 10.87882812 -12.20703125 10.81640625 C-8.09021792 10.37987629 -4.04455467 9.91328654 0 9 C0 6.03 0 3.06 0 0 Z " fill="#AF473F" transform="translate(200,384)"/>
<path d="M0 0 C3.79049707 1.42749981 7.27122456 3.16236542 10.8125 5.125 C12.27623047 5.93324219 12.27623047 5.93324219 13.76953125 6.7578125 C14.50558594 7.16773438 15.24164063 7.57765625 16 8 C15.01 8.66 14.02 9.32 13 10 C12.67 9.01 12.34 8.02 12 7 C11.113125 6.896875 10.22625 6.79375 9.3125 6.6875 C5.89270713 5.97773167 3.79093141 5.07326333 1 3 C0.67 2.01 0.34 1.02 0 0 Z " fill="#D8695C" transform="translate(358,26)"/>
<path d="M0 0 C1.32 0 2.64 0 4 0 C2.55218207 3.44428265 0.72305391 5.36130962 -2.125 7.75 C-3.21167969 8.67039062 -3.21167969 8.67039062 -4.3203125 9.609375 C-4.87460937 10.06828125 -5.42890625 10.5271875 -6 11 C-6.33 10.01 -6.66 9.02 -7 8 C-5.71034824 6.62437146 -4.37310707 5.29233607 -3 4 C-2.34 4 -1.68 4 -1 4 C-0.67 2.68 -0.34 1.36 0 0 Z " fill="#C6544A" transform="translate(415,424)"/>
<path d="M0 0 C0.66 0 1.32 0 2 0 C2.33 1.98 2.66 3.96 3 6 C3.66 6 4.32 6 5 6 C6.60355101 9.50776784 7.22036864 12.14354879 7 16 C7.66 16.33 8.32 16.66 9 17 C8.34 17.66 7.68 18.32 7 19 C5.82905995 16.2100561 4.66309073 13.41821403 3.5 10.625 C2.99919922 9.43390625 2.99919922 9.43390625 2.48828125 8.21875 C2.17246094 7.45820313 1.85664063 6.69765625 1.53125 5.9140625 C1.23798828 5.2123291 0.94472656 4.5105957 0.64257812 3.78759766 C0 2 0 2 0 0 Z " fill="#D8685E" transform="translate(14,330)"/>
<path d="M0 0 C0.33 0 0.66 0 1 0 C1.20496094 1.16917969 1.40992188 2.33835937 1.62109375 3.54296875 C1.89319855 5.09115122 2.16533567 6.639328 2.4375 8.1875 C2.57220703 8.95642578 2.70691406 9.72535156 2.84570312 10.51757812 C2.97783203 11.26845703 3.10996094 12.01933594 3.24609375 12.79296875 C3.37226074 13.52306152 3.49842773 14.2531543 3.62841797 15.00537109 C3.93240823 16.63717166 4.31646223 18.25387466 4.72265625 19.86328125 C5 22 5 22 3 25 C-0.44419134 8.29157175 -0.44419134 8.29157175 0 0 Z " fill="#DA766D" transform="translate(2,276)"/>
<path d="M0 0 C1.54620838 4.3876173 0.15606516 7.02159179 -1.7421875 11.0703125 C-3 13 -3 13 -5.75 14.0625 C-6.86375 14.0315625 -6.86375 14.0315625 -8 14 C-5.33333333 9.33333333 -2.66666667 4.66666667 0 0 Z " fill="#AF4B42" transform="translate(328,202)"/>
<path d="M0 0 C3.96 0 7.92 0 12 0 C11.67 0.99 11.34 1.98 11 3 C7.44706507 4.14947895 6.20023331 4.0868937 2.6875 2.5625 C1.800625 2.046875 0.91375 1.53125 0 1 C0 0.67 0 0.34 0 0 Z M4 4 C6 5 6 5 6 5 Z " fill="#C55F53" transform="translate(292,394)"/>
<path d="M0 0 C1.81361152 6.01355397 0.71114746 12.39696192 -2 18 C-2.66 18 -3.32 18 -4 18 C-3.41632611 11.69632197 -1.95928381 6.01339937 0 0 Z " fill="#D66758" transform="translate(11,172)"/>
<path d="M0 0 C0.66 0.33 1.32 0.66 2 1 C1.88529863 2.75070517 1.75780972 4.50057536 1.625 6.25 C1.55539062 7.22453125 1.48578125 8.1990625 1.4140625 9.203125 C1.01534751 11.89633189 0.36492937 13.66963279 -1 16 C-1.02692484 13.70839681 -1.04636124 11.41670454 -1.0625 9.125 C-1.07410156 7.84882813 -1.08570313 6.57265625 -1.09765625 5.2578125 C-1 2 -1 2 0 0 Z " fill="#C35B50" transform="translate(489,287)"/>
<path d="M0 0 C1 3 1 3 0.14453125 5.0078125 C-0.51482422 6.05582031 -0.51482422 6.05582031 -1.1875 7.125 C-1.61417969 7.82882813 -2.04085937 8.53265625 -2.48046875 9.2578125 C-4.25479631 11.2921315 -5.36997598 11.62830496 -8 12 C-8.33 11.01 -8.66 10.02 -9 9 C-8.51789063 8.68546875 -8.03578125 8.3709375 -7.5390625 8.046875 C-2.74628648 4.90611252 -2.74628648 4.90611252 0 0 Z " fill="#A64840" transform="translate(219,219)"/>
<path d="M0 0 C1.74325447 2.6148817 2.41587957 4.0053433 3.125 6.9375 C3.29257812 7.60652344 3.46015625 8.27554688 3.6328125 8.96484375 C4 11 4 11 4 15 C3.34 15 2.68 15 2 15 C-0.59227518 10.13948404 -0.18689553 5.34728867 0 0 Z " fill="#D6675D" transform="translate(485,180)"/>
<path d="M0 0 C2.475 0.99 2.475 0.99 5 2 C5 2.99 5 3.98 5 5 C6.32 4.34 7.64 3.68 9 3 C9 5.31 9 7.62 9 10 C7.2925002 8.71937515 5.62626404 7.38232443 4 6 C4 5.34 4 4.68 4 4 C3.01 4 2.02 4 1 4 C0.67 2.68 0.34 1.36 0 0 Z " fill="#D24D43" transform="translate(185,99)"/>
<path d="M0 0 C0.66 0 1.32 0 2 0 C1.68806536 1.72926874 1.37542638 3.45841044 1.0625 5.1875 C0.88847656 6.15042969 0.71445312 7.11335937 0.53515625 8.10546875 C0.0476265 10.74239972 -0.46671105 13.3719905 -1 16 C-2.6875 14.5 -2.6875 14.5 -4 12 C-3.51358881 9.86154359 -2.75069711 8.00156543 -1.859375 6 C-1.00695527 4.01618682 -0.46957198 2.10368249 0 0 Z " fill="#D16354" transform="translate(267,133)"/>
<path d="M0 0 C1.75128818 0.28382946 3.50100003 0.57739529 5.25 0.875 C6.71179688 1.11863281 6.71179688 1.11863281 8.203125 1.3671875 C10.77264117 1.94855848 12.72071056 2.70840265 15 4 C9.96488101 5.0070238 6.76052962 4.97387813 2 3 C2 2.34 2 1.68 2 1 C1.34 0.67 0.68 0.34 0 0 Z " fill="#DA6D63" transform="translate(302,6)"/>
<path d="M0 0 C1.72274487 2.58411731 2.68895522 4.54902656 3.6875 7.4375 C3.95949219 8.19933594 4.23148437 8.96117187 4.51171875 9.74609375 C5.04729142 12.21829721 4.80445309 13.62983284 4 16 C3.67 15.01 3.34 14.02 3 13 C2.34 12.67 1.68 12.34 1 12 C0.5859375 9.27734375 0.5859375 9.27734375 0.375 5.9375 C0.30023438 4.83277344 0.22546875 3.72804688 0.1484375 2.58984375 C0.09945313 1.73519531 0.05046875 0.88054687 0 0 Z " fill="#F1D6CD" transform="translate(325,124)"/>
<path d="M0 0 C2 2 2 2 2 6 C2.66 6.33 3.32 6.66 4 7 C2.35 7.33 0.7 7.66 -1 8 C-1.93065133 5.39417629 -2.14917407 4.35801776 -1.0625 1.75 C-0.711875 1.1725 -0.36125 0.595 0 0 Z " fill="#A44039" transform="translate(173,192)"/>
<path d="M0 0 C2.31 0.33 4.62 0.66 7 1 C7.33 1.99 7.66 2.98 8 4 C7.67 4.66 7.34 5.32 7 6 C5.68 6 4.36 6 3 6 C2.01 4.02 1.02 2.04 0 0 Z " fill="#CA4E3F" transform="translate(319,111)"/>
<path d="M0 0 C1.65 0 3.3 0 5 0 C5 1.32 5 2.64 5 4 C3.68 3.67 2.36 3.34 1 3 C0.67 4.65 0.34 6.3 0 8 C-0.33 8 -0.66 8 -1 8 C-1.125 2.25 -1.125 2.25 0 0 Z " fill="#FBDCD5" transform="translate(180,99)"/>
<path d="M0 0 C2.475 0.495 2.475 0.495 5 1 C5 1.99 5 2.98 5 4 C7.475 4.99 7.475 4.99 10 6 C9.67 6.99 9.34 7.98 9 9 C7.87105124 8.06725891 6.74699124 7.12859878 5.625 6.1875 C4.99851562 5.66542969 4.37203125 5.14335937 3.7265625 4.60546875 C2 3 2 3 0 0 Z " fill="#CF5D50" transform="translate(75,424)"/>
<path d="M0 0 C0.33 0 0.66 0 1 0 C1 2.64 1 5.28 1 8 C0.34 8 -0.32 8 -1 8 C-1 8.99 -1 9.98 -1 11 C-1.99 11.33 -2.98 11.66 -4 12 C-2.66666667 8 -1.33333333 4 0 0 Z " fill="#D66456" transform="translate(20,148)"/>
<path d="M0 0 C0.33 0.66 0.66 1.32 1 2 C0.06553465 4.03144641 -0.93224776 6.03533587 -2 8 C-2.66 8 -3.32 8 -4 8 C-4.33 9.32 -4.66 10.64 -5 12 C-5.66 12 -6.32 12 -7 12 C-5.44298069 7.32894208 -2.91552627 3.91294315 0 0 Z " fill="#D5635B" transform="translate(48,100)"/>
<path d="M0 0 C2.00720923 0.28674418 4.0085944 0.61866701 6 1 C6 1.33 6 1.66 6 2 C4.35 2 2.7 2 1 2 C0.34 4.97 -0.32 7.94 -1 11 C-1.99 10.67 -2.98 10.34 -4 10 C-4 9.34 -4 8.68 -4 8 C-3.34 8 -2.68 8 -2 8 C-1.855625 6.865625 -1.71125 5.73125 -1.5625 4.5625 C-1 1 -1 1 0 0 Z " fill="#D25249" transform="translate(179,97)"/>
<path d="M0 0 C1.32 0 2.64 0 4 0 C4.33 0.66 4.66 1.32 5 2 C6.98 2 8.96 2 11 2 C10.67 3.65 10.34 5.3 10 7 C2.42857143 2.85714286 2.42857143 2.85714286 0 0 Z " fill="#D46757" transform="translate(106,450)"/>
<path d="M0 0 C2.97 0.495 2.97 0.495 6 1 C4.37660195 2.70884005 2.70680947 4.37446717 1 6 C0.34 6 -0.32 6 -1 6 C-1.33 5.01 -1.66 4.02 -2 3 C-1.34 2.01 -0.68 1.02 0 0 Z " fill="#CC5549" transform="translate(400,436)"/>
<path d="M0 0 C0.66 0.33 1.32 0.66 2 1 C2.75 3.375 2.75 3.375 3 6 C2.01 7.485 2.01 7.485 1 9 C-0.625 6.75 -0.625 6.75 -2 4 C-1.1875 1.6875 -1.1875 1.6875 0 0 Z " fill="#DA5B4C" transform="translate(35,368)"/>
<path d="M0 0 C0.99 0 1.98 0 3 0 C4.75 2.375 4.75 2.375 6 5 C5.67 5.66 5.34 6.32 5 7 C4.401875 6.505 3.80375 6.01 3.1875 5.5 C1.02970006 3.71723582 1.02970006 3.71723582 -2 4 C-1.34 2.68 -0.68 1.36 0 0 Z " fill="#DA5D4F" transform="translate(459,123)"/>
<path d="M0 0 C0 1.98 0 3.96 0 6 C-5.875 2.25 -5.875 2.25 -7 0 C-3.98968256 -0.93423645 -3.13349732 -1.04449911 0 0 Z " fill="#D95D4E" transform="translate(95,436)"/>
<path d="M0 0 C1.32 0 2.64 0 4 0 C2.50902342 3.7952131 0.24299151 5.61042731 -3 8 C-3 7.01 -3 6.02 -3 5 C-2.34 5 -1.68 5 -1 5 C-0.67 3.35 -0.34 1.7 0 0 Z " fill="#C75C53" transform="translate(428,411)"/>
<path d="M0 0 C0.99 0.33 1.98 0.66 3 1 C1.02 5.455 1.02 5.455 -1 10 C-1.33 10 -1.66 10 -2 10 C-2.25 3.375 -2.25 3.375 0 0 Z " fill="#CB645A" transform="translate(471,347)"/>
<path d="M0 0 C3.28788824 3.11016455 5.83735988 6.01618925 8 10 C7.34 10 6.68 10 6 10 C6 9.34 6 8.68 6 8 C5.34 8 4.68 8 4 8 C4 7.34 4 6.68 4 6 C2.68 6 1.36 6 0 6 C0 4.02 0 2.04 0 0 Z " fill="#D76B5D" transform="translate(434,85)"/>
<path d="M0 0 C0.33 0.99 0.66 1.98 1 3 C-1.95183101 5.95183101 -4.95511947 6.08663988 -9 7 C-6.24479785 4.04070881 -3.53372712 1.96318174 0 0 Z " fill="#D8675E" transform="translate(113,39)"/>
<path d="M0 0 C-1.09445838 0.86657116 -2.20097781 1.71792724 -3.3125 2.5625 C-3.92738281 3.03816406 -4.54226563 3.51382812 -5.17578125 4.00390625 C-5.77777344 4.33261719 -6.37976563 4.66132813 -7 5 C-7.99 4.67 -8.98 4.34 -10 4 C-10 3.34 -10 2.68 -10 2 C-3.375 -1.125 -3.375 -1.125 0 0 Z " fill="#C75950" transform="translate(393,448)"/>
<path d="M0 0 C0.66 0.66 1.32 1.32 2 2 C1.19185349 3.33597652 0.37836819 4.668725 -0.4375 6 C-0.88996094 6.7425 -1.34242188 7.485 -1.80859375 8.25 C-2.20175781 8.8275 -2.59492188 9.405 -3 10 C-3.33 10 -3.66 10 -4 10 C-4.20086443 6.28400809 -4.1519437 5.22791555 -2 2 C-1.34 2 -0.68 2 0 2 C0 1.34 0 0.68 0 0 Z " fill="#C95951" transform="translate(456,376)"/>
<path d="M0 0 C0.99 0 1.98 0 3 0 C4 3 4 3 3 6 C2.01 6 1.02 6 0 6 C-0.38218767 4.34385343 -0.71395102 2.67542976 -1 1 C-0.67 0.67 -0.34 0.34 0 0 Z " fill="#AF3D2B" transform="translate(275,216)"/>
<path d="M0 0 C0.66 0.33 1.32 0.66 2 1 C0.9375 3.375 0.9375 3.375 -1 6 C-4.6875 7.3125 -4.6875 7.3125 -8 8 C-5.33333333 5.33333333 -2.66666667 2.66666667 0 0 Z " fill="#D86B62" transform="translate(93,53)"/>
<path d="M0 0 C0.33 0 0.66 0 1 0 C1.33 2.64 1.66 5.28 2 8 C1.34 8 0.68 8 0 8 C0 8.66 0 9.32 0 10 C-0.99 10 -1.98 10 -3 10 C-2.01 6.7 -1.02 3.4 0 0 Z " fill="#AD4C44" transform="translate(332,192)"/>
<path d="M0 0 C2.64 0.33 5.28 0.66 8 1 C8 1.99 8 2.98 8 4 C2.25 4.125 2.25 4.125 0 3 C0 2.01 0 1.02 0 0 Z " fill="#DA574C" transform="translate(368,34)"/>
<path d="M0 0 C0 0.66 0 1.32 0 2 C-0.99 2 -1.98 2 -3 2 C-3.33 2.99 -3.66 3.98 -4 5 C-6.31 5.33 -8.62 5.66 -11 6 C-3.28571429 0 -3.28571429 0 0 0 Z " fill="#D9766D" transform="translate(133,28)"/>
<path d="M0 0 C3.36591866 1.44253657 5.51047079 3.33264727 8 6 C6.68 6 5.36 6 4 6 C4 5.34 4 4.68 4 4 C3.01 4 2.02 4 1 4 C0.67 2.68 0.34 1.36 0 0 Z " fill="#D76C61" transform="translate(392,47)"/>
<path d="M0 0 C0 3 0 3 -1 5 C-3.3140622 5.73075648 -5.64828869 6.40138258 -8 7 C-5.42215154 4.35247996 -3.08351902 2.05567935 0 0 Z " fill="#D46C5E" transform="translate(103,46)"/>
<path d="M0 0 C2.31 0 4.62 0 7 0 C6.67 1.32 6.34 2.64 6 4 C4.35 3.67 2.7 3.34 1 3 C0.67 2.01 0.34 1.02 0 0 Z " fill="#CE4634" transform="translate(416,416)"/>
<path d="M0 0 C1.32 0.33 2.64 0.66 4 1 C4.12375 1.804375 4.2475 2.60875 4.375 3.4375 C4.684375 4.7059375 4.684375 4.7059375 5 6 C5.66 6.33 6.32 6.66 7 7 C6.01 7 5.02 7 4 7 C2.02 3.535 2.02 3.535 0 0 Z " fill="#D6685D" transform="translate(47,392)"/>
<path d="M0 0 C1.32 0.33 2.64 0.66 4 1 C4.33 3.31 4.66 5.62 5 8 C2.74754119 5.31158141 1.11786042 3.35358125 0 0 Z " fill="#D46453" transform="translate(37,377)"/>
<path d="M0 0 C2.5 2.25 2.5 2.25 5 5 C5 6.32 5 7.64 5 9 C4.34 9 3.68 9 3 9 C3 7.68 3 6.36 3 5 C2.34 5 1.68 5 1 5 C0.67 3.35 0.34 1.7 0 0 Z " fill="#AF5A51" transform="translate(281,219)"/>
<path d="M0 0 C0.33 0 0.66 0 1 0 C1.08131463 1.43655854 1.13933559 2.8744483 1.1875 4.3125 C1.23970703 5.51326172 1.23970703 5.51326172 1.29296875 6.73828125 C0.93801608 9.47851584 0.10633718 10.29171079 -2 12 C-1.44687265 7.97007218 -0.8441938 3.97977076 0 0 Z " fill="#F3D8CF" transform="translate(266,144)"/>
<path d="M0 0 C0.33 0.99 0.66 1.98 1 3 C-2 5 -2 5 -4.1875 4.625 C-4.785625 4.41875 -5.38375 4.2125 -6 4 C-4.02 2.68 -2.04 1.36 0 0 Z " fill="#A94D46" transform="translate(209,229)"/>
<path d="M0 0 C0.99 0.33 1.98 0.66 3 1 C2.67 1.99 2.34 2.98 2 4 C-0.0625 4.6875 -0.0625 4.6875 -2 5 C-1.125 1.125 -1.125 1.125 0 0 Z " fill="#AB443B" transform="translate(313,223)"/>
<path d="M0 0 C3 2 3 2 3.6875 4.625 C3.790625 5.40875 3.89375 6.1925 4 7 C2.0625 6.6875 2.0625 6.6875 0 6 C-1 3 -1 3 0 0 Z " fill="#B24940" transform="translate(278,216)"/>
<path d="M0 0 C1 3 1 3 -0.4375 6.1875 C-1.2109375 7.5796875 -1.2109375 7.5796875 -2 9 C-2.66 9 -3.32 9 -4 9 C-2.80100302 5.9168649 -1.52299523 2.93720508 0 0 Z " fill="#D5685F" transform="translate(35,119)"/>
<path d="M0 0 C0.6875 1.8125 0.6875 1.8125 1 4 C-0.4375 5.75 -0.4375 5.75 -2 7 C-2.99 6.67 -3.98 6.34 -5 6 C-3.35 4.02 -1.7 2.04 0 0 Z " fill="#D76355" transform="translate(61,84)"/>
</svg>
